<svg xmlns="http://www.w3.org/2000/svg" width="15" height="14" viewBox="0 0 15 14"><path d="M11.484,14H3.515A3.408,3.408,0,0,1,0,10.719V6.1A3.408,3.408,0,0,1,3.515,2.817H5.859a.569.569,0,0,1,.587.547.569.569,0,0,1-.587.547H3.515A2.272,2.272,0,0,0,1.172,6.1v4.621a2.272,2.272,0,0,0,2.344,2.188h7.969a2.273,2.273,0,0,0,2.344-2.188V7.575a.587.587,0,0,1,1.172,0v3.144A3.409,3.409,0,0,1,11.484,14Zm-.175-7.109A3.578,3.578,0,0,1,7.618,3.446,3.579,3.579,0,0,1,11.309,0,3.579,3.579,0,0,1,15,3.446,3.579,3.579,0,0,1,11.309,6.891Zm0-5.8A2.442,2.442,0,0,0,8.789,3.446,2.442,2.442,0,0,0,11.309,5.8a2.443,2.443,0,0,0,2.52-2.351A2.443,2.443,0,0,0,11.309,1.094Z" fill="#100db1"/></svg>