<svg id="Group_6" data-name="Group 6" xmlns="http://www.w3.org/2000/svg" width="15" height="14" viewBox="0 0 15 14">
  <path id="Shape" d="M11.484,14H3.515A3.408,3.408,0,0,1,0,10.719V6.1A3.408,3.408,0,0,1,3.515,2.817H5.859a.568.568,0,0,1,.586.546.568.568,0,0,1-.586.546H3.515A2.273,2.273,0,0,0,1.172,6.1v4.621a2.272,2.272,0,0,0,2.344,2.187h7.969a2.272,2.272,0,0,0,2.344-2.187V7.574a.587.587,0,0,1,1.172,0v3.145A3.409,3.409,0,0,1,11.484,14Zm-.175-7.109A3.579,3.579,0,0,1,7.617,3.445,3.579,3.579,0,0,1,11.309,0,3.579,3.579,0,0,1,15,3.445,3.579,3.579,0,0,1,11.309,6.891Zm0-5.8a2.443,2.443,0,0,0-2.52,2.351A2.443,2.443,0,0,0,11.309,5.8a2.442,2.442,0,0,0,2.519-2.352A2.442,2.442,0,0,0,11.309,1.094Z" fill="#100db1"/>
  <path id="Shape-2" data-name="Shape" d="M5.156,8.119a3.656,3.656,0,0,1-2.132-.67L.231,5.466A.534.534,0,0,1,0,5.1.518.518,0,0,1,.12,4.7a.6.6,0,0,1,.467-.215A.605.605,0,0,1,.941,4.6L3.734,6.579a2.486,2.486,0,0,0,2.844,0l.977-.7a.6.6,0,0,1,.356-.113.6.6,0,0,1,.465.215.518.518,0,0,1,.116.4.537.537,0,0,1-.225.367l-.977.7A3.709,3.709,0,0,1,5.156,8.119Zm3.809-5.33a.568.568,0,0,1-.586-.547V1.094A.569.569,0,0,1,7.793.547.568.568,0,0,1,8.379,0h.586a.568.568,0,0,1,.586.547V2.242A.568.568,0,0,1,8.965,2.789Z" transform="translate(2.344 2.051)" fill="#f80d38"/>
</svg>
