<svg xmlns="http://www.w3.org/2000/svg" xmlns:xlink="http://www.w3.org/1999/xlink" width="13.049" height="16.957" viewBox="0 0 13.049 16.957">
  <defs>
    <clipPath id="clip-path">
      <rect width="13.049" height="16.957" fill="none"/>
    </clipPath>
  </defs>
  <g id="Group_4" data-name="Group 4" clip-path="url(#clip-path)">
    <g id="Group_4-2" data-name="Group 4" transform="translate(0 0)">
      <path id="Shape" d="M12.387,16.957a.663.663,0,0,1-.662-.661,4.708,4.708,0,0,0-4.7-4.7H6.028a4.709,4.709,0,0,0-4.7,4.7A.662.662,0,0,1,0,16.3a6.035,6.035,0,0,1,6.028-6.028h.994A6.035,6.035,0,0,1,13.049,16.3.663.663,0,0,1,12.387,16.957ZM6.458,8.942A4.471,4.471,0,1,1,10.93,4.471,4.476,4.476,0,0,1,6.458,8.942Zm0-7.618A3.146,3.146,0,1,0,9.6,4.471,3.15,3.15,0,0,0,6.458,1.325Z" fill="#100db1"/>
      <path id="Shape-2" data-name="Shape" d="M3.345,4.5a.657.657,0,0,1-.332-.089L.33,2.858A.661.661,0,0,1,.1,1.94L1.091.317a.662.662,0,0,1,1.13.691L1.581,2.053,3.349,3.079,5.162,2.052,4.508,1.017A.663.663,0,0,1,5.627.308L6.654,1.931a.663.663,0,0,1-.233.931L3.672,4.418a.655.655,0,0,1-.326.086Z" transform="translate(3.146 12.453)" fill="#f80d38"/>
    </g>
  </g>
</svg>
