<svg xmlns="http://www.w3.org/2000/svg" xmlns:xlink="http://www.w3.org/1999/xlink" width="126.35" height="46.045" viewBox="0 0 126.35 46.045"><defs><linearGradient id="a" x1="0.5" x2="0.5" y2="1" gradientUnits="objectBoundingBox"><stop offset="0" stop-color="#100db4"/><stop offset="1" stop-color="#070641"/></linearGradient></defs><g transform="translate(-29.9 -20.923)"><path d="M.544,16.555a.6.6,0,0,1-.4-.142.6.6,0,0,1-.142-.4V.544A.511.511,0,0,1,.142.166.547.547,0,0,1,.544,0H1.8a.473.473,0,0,1,.378.166.473.473,0,0,1,.166.378V16.011a.547.547,0,0,1-.166.4.511.511,0,0,1-.378.142Z" transform="translate(73.842 33.461)" fill="#12132a"/><path d="M4.162,12.3a.706.706,0,0,1-.473-.142,1.1,1.1,0,0,1-.284-.449L.047.733,0,.5A.481.481,0,0,1,.142.142.536.536,0,0,1,.5,0H1.537a.511.511,0,0,1,.378.142A.54.54,0,0,1,2.129.4L4.754,9.318,7.568.5A.634.634,0,0,1,7.781.166.607.607,0,0,1,8.23,0h.8a.607.607,0,0,1,.449.166A.635.635,0,0,1,9.7.5l2.814,8.822L15.136.4A.547.547,0,0,1,15.3.142.6.6,0,0,1,15.7,0h1.064A.454.454,0,0,1,17.1.142.481.481,0,0,1,17.241.5l-.047.236L13.859,11.707a1.1,1.1,0,0,1-.284.449.747.747,0,0,1-.5.142h-.922a.718.718,0,0,1-.78-.591L8.632,3.24,5.889,11.707a.775.775,0,0,1-.8.591Z" transform="translate(79.103 37.718)" fill="#12132a"/><path d="M5.582,12.771A5.442,5.442,0,0,1,1.537,11.3,5.734,5.734,0,0,1,.023,7.4L0,6.385.023,5.368A5.648,5.648,0,0,1,1.561,1.49,5.36,5.36,0,0,1,5.582,0,5.356,5.356,0,0,1,9.6,1.49a5.648,5.648,0,0,1,1.537,3.878c.016.173.024.515.024,1.017s-.008.844-.024,1.017A5.68,5.68,0,0,1,9.6,11.3,5.359,5.359,0,0,1,5.582,12.771Zm0-10.95a3.077,3.077,0,0,0-2.365.947,4.046,4.046,0,0,0-.922,2.72l-.023.9.023.9A4.049,4.049,0,0,0,3.217,10a3.077,3.077,0,0,0,2.365.946A3,3,0,0,0,7.923,10a4.131,4.131,0,0,0,.946-2.72c.016-.157.024-.459.024-.9s-.008-.741-.024-.9a4.128,4.128,0,0,0-.946-2.72A3,3,0,0,0,5.582,1.821Z" transform="translate(98.096 37.482)" fill="#12132a"/><path d="M5.014,12.771a6.681,6.681,0,0,1-2.791-.52,5,5,0,0,1-1.679-1.23A2.032,2.032,0,0,1,0,9.886a.406.406,0,0,1,.166-.355.628.628,0,0,1,.378-.142H1.608a.542.542,0,0,1,.426.236,4.719,4.719,0,0,0,1.23,1.041,3.57,3.57,0,0,0,1.774.378,3.7,3.7,0,0,0,1.986-.473,1.527,1.527,0,0,0,.781-1.348A1.3,1.3,0,0,0,7.474,8.3a2.332,2.332,0,0,0-1.088-.639,17.731,17.731,0,0,0-2.271-.615,6.061,6.061,0,0,1-2.932-1.3,2.975,2.975,0,0,1-.852-2.2,3.082,3.082,0,0,1,.521-1.7A3.813,3.813,0,0,1,2.413.52,5.494,5.494,0,0,1,4.9,0,6.066,6.066,0,0,1,7.474.5,4.134,4.134,0,0,1,9.058,1.679,1.93,1.93,0,0,1,9.6,2.791a.449.449,0,0,1-.165.355.482.482,0,0,1-.355.142H8.089a.581.581,0,0,1-.473-.236,5.622,5.622,0,0,0-.663-.686,2.114,2.114,0,0,0-.78-.449A3.638,3.638,0,0,0,4.9,1.727a2.721,2.721,0,0,0-1.75.5,1.5,1.5,0,0,0-.615,1.253,1.4,1.4,0,0,0,.26.851,2.337,2.337,0,0,0,.993.615,16.544,16.544,0,0,0,2.176.591A6.474,6.474,0,0,1,9.129,6.906a2.922,2.922,0,0,1,.946,2.247A3.1,3.1,0,0,1,9.484,11a3.877,3.877,0,0,1-1.75,1.3,7.056,7.056,0,0,1-2.72.473Z" transform="translate(111.464 37.482)" fill="#12132a"/><path d="M4.3,12.771A4.977,4.977,0,0,1,2.152,12.3,4.153,4.153,0,0,1,.568,11.021,3.162,3.162,0,0,1,0,9.2,3.108,3.108,0,0,1,1.277,6.646a7.239,7.239,0,0,1,3.5-1.324l3.524-.5V4.139c0-1.6-.931-2.413-2.768-2.413a2.981,2.981,0,0,0-1.7.45,2.922,2.922,0,0,0-.994,1.017.64.64,0,0,1-.189.307.387.387,0,0,1-.283.095H1.348A.565.565,0,0,1,.97,3.453a.566.566,0,0,1-.142-.379A2.508,2.508,0,0,1,1.348,1.8,4.108,4.108,0,0,1,2.933.544,5.75,5.75,0,0,1,5.558,0,5.008,5.008,0,0,1,9.366,1.254a4.331,4.331,0,0,1,1.158,3.074v7.663a.553.553,0,0,1-.166.4.51.51,0,0,1-.378.142H8.893a.494.494,0,0,1-.544-.545V10.974a4.106,4.106,0,0,1-1.515,1.277A5.445,5.445,0,0,1,4.3,12.771Zm4-6.338-2.743.4a6.236,6.236,0,0,0-2.532.8,1.62,1.62,0,0,0-.85,1.395A1.671,1.671,0,0,0,2.957,10.5,3.369,3.369,0,0,0,4.8,11,3.363,3.363,0,0,0,7.308,10,4.011,4.011,0,0,0,8.3,7.1V6.433Z" transform="translate(123.401 37.482)" fill="#12132a"/><path d="M.544,12.535a.6.6,0,0,1-.4-.142.6.6,0,0,1-.142-.4V.78A.51.51,0,0,1,.142.4a.546.546,0,0,1,.4-.166H1.655A.475.475,0,0,1,2.034.4.474.474,0,0,1,2.2.78V1.821A4.839,4.839,0,0,1,3.807.473,5.207,5.207,0,0,1,6.149,0,4.386,4.386,0,0,1,9.673,1.466,5.606,5.606,0,0,1,10.95,5.321v6.669a.545.545,0,0,1-.166.4.511.511,0,0,1-.378.142H9.223a.494.494,0,0,1-.544-.544V5.44a3.766,3.766,0,0,0-.827-2.6A2.941,2.941,0,0,0,5.51,1.916a3.065,3.065,0,0,0-2.365.946A3.6,3.6,0,0,0,2.27,5.44v6.551a.545.545,0,0,1-.166.4.509.509,0,0,1-.378.142Z" transform="translate(137.326 37.482)" fill="#12132a"/><path d="M1.269,3.9a.134.134,0,0,1-.139-.139V.874H.14a.149.149,0,0,1-.1-.039A.148.148,0,0,1,0,.735v-.6a.135.135,0,0,1,.039-.1A.149.149,0,0,1,.14,0H3.133a.137.137,0,0,1,.1.039.135.135,0,0,1,.039.1v.6a.135.135,0,0,1-.039.1.137.137,0,0,1-.1.039h-.99V3.756a.148.148,0,0,1-.039.1A.135.135,0,0,1,2,3.9Z" transform="translate(148.643 32.052)" fill="#12132a"/><path d="M.139,3.9a.148.148,0,0,1-.1-.039A.148.148,0,0,1,0,3.756V.139a.135.135,0,0,1,.039-.1A.148.148,0,0,1,.139,0h.6a.2.2,0,0,1,.2.122l.98,1.753L2.894.122A.2.2,0,0,1,3.089,0h.6a.135.135,0,0,1,.1.039.126.126,0,0,1,.045.1V3.756a.126.126,0,0,1-.045.1.135.135,0,0,1-.1.039H3.022a.156.156,0,0,1-.106-.039.135.135,0,0,1-.039-.1V1.669L2.254,2.833a.218.218,0,0,1-.2.128H1.77a.191.191,0,0,1-.117-.033.282.282,0,0,1-.078-.095L.946,1.669V3.756a.148.148,0,0,1-.039.1.135.135,0,0,1-.1.039Z" transform="translate(152.421 32.052)" fill="#12132a"/><path d="M0,6.257A26.834,26.834,0,0,0,16.737.469L17.207,0l.469.469A26.834,26.834,0,0,0,34.413,6.257c-2.034,6.257-3.128,10.95-3.128,14.078s1.095,4.693,3.128,4.693v4.693C22.994,39.106,17.207,43.8,17.207,43.8S11.419,39.106,0,29.721V25.028c2.033-1.251,3.128-2.816,3.128-4.693A37.724,37.724,0,0,0,0,6.257Z" transform="translate(31.023 22.046)" fill="url(#a)"/><path d="M18.33,46.045a1.127,1.127,0,0,1-.707-.25l-.272-.221-.49-.4-.323-.262q-.955-.776-3.24-2.641Q9.5,39.176.41,31.712A1.118,1.118,0,0,1,0,30.844V26.151a1.116,1.116,0,0,1,.535-.957c1.745-1.074,2.594-2.3,2.594-3.736A36.334,36.334,0,0,0,.083,7.8a1.123,1.123,0,0,1,1.04-1.546A25.735,25.735,0,0,0,17.111.754l.425-.425a1.122,1.122,0,0,1,1.588,0l.425.425a25.738,25.738,0,0,0,15.988,5.5A1.123,1.123,0,0,1,36.6,7.727c-2.068,6.364-3.074,10.855-3.074,13.731a5.178,5.178,0,0,0,.61,2.891,1.518,1.518,0,0,0,1.395.679,1.125,1.125,0,0,1,1.124,1.123v4.693a1.12,1.12,0,0,1-.41.868c-5.957,4.9-10.3,8.446-12.889,10.561q-2.156,1.76-3.239,2.641l-.321.261-.491.4-.271.22h0A1.127,1.127,0,0,1,18.33,46.045Zm0-43.391h0A27.293,27.293,0,0,1,11,6.736,28.323,28.323,0,0,1,2.749,8.457a37.547,37.547,0,0,1,2.626,13,6.363,6.363,0,0,1-3.128,5.3v3.554c4.4,3.617,8.6,7.056,12.472,10.219,1.439,1.175,2.536,2.068,3.236,2.638l.374.3.315-.256.058-.048c.721-.586,1.81-1.474,3.237-2.638,4.094-3.344,8.174-6.686,12.472-10.219V27.135a3.629,3.629,0,0,1-2.135-1.528,7.406,7.406,0,0,1-.994-4.148c0-2.9.892-7.15,2.726-13A28.333,28.333,0,0,1,25.7,6.753a27.278,27.278,0,0,1-7.374-4.1Z" transform="translate(29.9 20.923)" fill="#09075f"/><path d="M0,0H5.259V8.046H0V0Z" transform="translate(45.609 33.156)" fill="#fff"/><path d="M0,5.259V0H8.046V5.259Z" transform="translate(37.563 41.202)" fill="#f80d38"/><path d="M8.046,5.259V0H0V5.259Z" transform="translate(50.852 41.153)" fill="#f80d38"/><path d="M5.259,8.275H0V0H5.259V8.275Z" transform="translate(45.609 46.46)" fill="#fff"/></g></svg>