<svg id="Group_8" data-name="Group 8" xmlns="http://www.w3.org/2000/svg" width="17" height="14" viewBox="0 0 17 14">
  <path id="Shape" d="M11.687,14H5.313a.584.584,0,1,1,0-1.157h6.375a.584.584,0,1,1,0,1.157Zm1.328-2.315H3.983A3.758,3.758,0,0,1,0,8.215V3.471A3.759,3.759,0,0,1,3.984,0h6.575a.626.626,0,0,1,.664.578.627.627,0,0,1-.664.58H3.984A2.506,2.506,0,0,0,1.328,3.471V8.215a2.5,2.5,0,0,0,2.655,2.314h9.032a2.506,2.506,0,0,0,2.656-2.314v-2.6a.671.671,0,0,1,1.328,0v2.6A3.758,3.758,0,0,1,13.016,11.686Z" fill="#100db1"/>
  <path id="Shape-2" data-name="Shape" d="M1.057,5.582H.664A.626.626,0,0,1,0,5a.627.627,0,0,1,.664-.579h.392A8.9,8.9,0,0,0,7.084,2.145a.707.707,0,0,1,.479-.178.718.718,0,0,1,.459.16.527.527,0,0,1,.022.818A10.315,10.315,0,0,1,1.057,5.582ZM9.689,3.876a.627.627,0,0,1-.664-.58V1.769a.663.663,0,0,0-.7-.612H6.568A.627.627,0,0,1,5.9.578.626.626,0,0,1,6.568,0H8.322a1.916,1.916,0,0,1,2.031,1.769V3.3A.627.627,0,0,1,9.689,3.876Z" transform="translate(6.646)" fill="#f80d38"/>
</svg>
