<svg xmlns="http://www.w3.org/2000/svg" xmlns:xlink="http://www.w3.org/1999/xlink" width="68" height="87" viewBox="0 0 68 87"><defs><clipPath id="a"><rect width="68" height="87" fill="none"/></clipPath><linearGradient id="b" x1="0.5" x2="0.5" y2="1" gradientUnits="objectBoundingBox"><stop offset="0" stop-color="#100db4"/><stop offset="1" stop-color="#070641"/></linearGradient></defs><rect width="68" height="87" fill="none"/><g clip-path="url(#a)"><path d="M0,11.575A49.64,49.64,0,0,0,30.962.868L31.83,0,32.7.868A49.64,49.64,0,0,0,63.66,11.575C59.9,23.149,57.873,31.83,57.873,37.617S59.9,46.3,63.66,46.3v8.681C42.537,72.341,31.83,81.022,31.83,81.022S21.124,72.341,0,54.979V46.3c3.762-2.315,5.787-5.209,5.787-8.681,0-8.1-2.026-16.783-5.787-26.043Z" transform="translate(2.17 3.003)" fill="url(#b)"/><path d="M33.908,85.178a2.086,2.086,0,0,1-1.309-.464l-.5-.408-.628-.511-.875-.712C29.16,81.918,27.087,80.229,24.6,78.2,19.781,74.265,11.732,67.682.759,58.663A2.071,2.071,0,0,1,0,57.057V48.377a2.091,2.091,0,0,1,.989-1.77c3.228-1.987,4.8-4.248,4.8-6.911,0-7.664-1.843-15.927-5.634-25.26a2.078,2.078,0,0,1,1.925-2.86A47.608,47.608,0,0,0,31.653,1.4l.786-.787A2.065,2.065,0,0,1,33.908,0a2.093,2.093,0,0,1,1.47.608l.786.787a47.608,47.608,0,0,0,29.575,10.18,2.078,2.078,0,0,1,1.976,2.72c-3.826,11.771-5.686,20.079-5.686,25.4,0,3.04.613,4.586,1.128,5.348A2.81,2.81,0,0,0,65.739,46.3a2.081,2.081,0,0,1,2.078,2.079v8.681a2.074,2.074,0,0,1-.759,1.606c-11.109,9.13-19.1,15.663-23.842,19.536-2.487,2.03-4.559,3.719-5.993,4.885l-1.5,1.222-.5.406v0h0A2.083,2.083,0,0,1,33.908,85.178Zm0-80.269a50.488,50.488,0,0,1-13.555,7.551A52.4,52.4,0,0,1,5.086,15.646,83.2,83.2,0,0,1,8.694,27.971,58.673,58.673,0,0,1,9.944,39.7c0,3.838-1.947,7.137-5.788,9.8v6.575C12.578,63,20.341,69.357,27.229,74.98c2.176,1.776,4.191,3.418,5.989,4.881l.043.035.648.527.634-.516.014-.011.043-.035c1.836-1.494,3.85-3.136,5.988-4.881,4.67-3.812,12.464-10.187,23.072-18.9V50.2a6.708,6.708,0,0,1-3.948-2.828c-1.22-1.808-1.839-4.39-1.839-7.673,0-5.363,1.65-13.227,5.044-24.04a52.4,52.4,0,0,1-15.367-3.163A50.484,50.484,0,0,1,33.908,4.91Z" transform="translate(0.092 0.925)" fill="#09075f"/><path d="M0,0H9.728V14.884H0V0Z" transform="translate(29.152 23.554)" fill="#fff"/><path d="M0,9.728V0H14.884V9.728Z" transform="translate(14.268 38.439)" fill="#f80d38"/><path d="M14.884,9.728V0H0V9.728Z" transform="translate(38.848 38.348)" fill="#f80d38"/><path d="M9.728,15.308H0V0H9.728V15.308Z" transform="translate(29.152 48.167)" fill="#fff"/></g></svg>