<svg xmlns="http://www.w3.org/2000/svg" width="19" height="19" viewBox="0 0 19 19"><path d="M14.547,19H4.453A4.458,4.458,0,0,1,0,14.547V4.453A4.458,4.458,0,0,1,4.453,0H14.547A4.458,4.458,0,0,1,19,4.453V14.547A4.458,4.458,0,0,1,14.547,19ZM4.453,1.484A2.972,2.972,0,0,0,1.484,4.453V14.547a2.972,2.972,0,0,0,2.969,2.969H14.547a2.972,2.972,0,0,0,2.969-2.969V4.453a2.972,2.972,0,0,0-2.969-2.969ZM14.881,16.031H13.248a.742.742,0,1,1,0-1.484h1.633a.742.742,0,1,1,0,1.484Zm-1-2.893h-6.2a.743.743,0,0,1,0-1.485h6.2a.742.742,0,1,1,0,1.485ZM7.088,4.49H3.971a.742.742,0,1,1,0-1.484H7.088a.742.742,0,1,1,0,1.484Z" fill="#100db1"/></svg>