<svg id="Group_7" data-name="Group 7" xmlns="http://www.w3.org/2000/svg" width="15" height="14" viewBox="0 0 15 14">
  <path id="Shape" d="M6.181,11.53A5.991,5.991,0,0,1,0,5.765,5.991,5.991,0,0,1,6.181,0a5.991,5.991,0,0,1,6.182,5.765A5.991,5.991,0,0,1,6.181,11.53Zm0-10.437A4.855,4.855,0,0,0,1.172,5.765a4.855,4.855,0,0,0,5.009,4.672,4.855,4.855,0,0,0,5.01-4.672A4.856,4.856,0,0,0,6.181,1.093Z" fill="#100db1"/>
  <path id="Shape-2" data-name="Shape" d="M11.309,11.536a.6.6,0,0,1-.414-.16L8.273,8.93a.519.519,0,0,1,0-.772.616.616,0,0,1,.828,0L11.723,10.6a.521.521,0,0,1,0,.773A.6.6,0,0,1,11.309,11.536Zm-8.2-4.978a.568.568,0,0,1-.586-.547V5.536a2.55,2.55,0,0,1-1.2-.638l-.435.243a.615.615,0,0,1-.3.078.6.6,0,0,1-.5-.266.512.512,0,0,1-.068-.405A.545.545,0,0,1,.284,4.2l.44-.246a2.172,2.172,0,0,1,0-1.358l-.44-.246a.547.547,0,0,1-.269-.345A.514.514,0,0,1,.084,1.6a.6.6,0,0,1,.5-.265.616.616,0,0,1,.3.077l.435.243a2.541,2.541,0,0,1,1.2-.637V.547A.568.568,0,0,1,3.106,0a.568.568,0,0,1,.586.547v.475a2.543,2.543,0,0,1,1.175.617l.4-.222a.616.616,0,0,1,.3-.077.6.6,0,0,1,.5.265.514.514,0,0,1,.068.405.547.547,0,0,1-.269.345l-.391.219a2.16,2.16,0,0,1,0,1.413l.391.218a.545.545,0,0,1,.269.345.512.512,0,0,1-.068.405.593.593,0,0,1-.5.266.615.615,0,0,1-.3-.078l-.4-.221a2.541,2.541,0,0,1-1.175.616v.475A.568.568,0,0,1,3.106,6.558Zm0-4.508A1.277,1.277,0,0,0,1.787,3.279a1.278,1.278,0,0,0,1.319,1.23,1.278,1.278,0,0,0,1.318-1.23A1.277,1.277,0,0,0,3.106,2.05Z" transform="translate(3.105 2.464)" fill="#f80d38"/>
</svg>
