<svg xmlns="http://www.w3.org/2000/svg" width="19.24" height="19.238" viewBox="0 0 19.24 19.238">
  <g id="Group_1" data-name="Group 1" transform="translate(-1209.062 -111.216)">
    <path id="Shape" d="M0,8.186A4.1,4.1,0,0,0,4.09,4.093,4.1,4.1,0,0,0,0,0" transform="translate(1218.682 116.742)" fill="#343434"/>
    <path id="Shape-2" data-name="Shape" d="M4.09,8.186A4.093,4.093,0,1,0,0,4.093,4.09,4.09,0,0,0,4.09,8.186Z" transform="matrix(0.999, 0.035, -0.035, 0.999, 1214.737, 116.602)" fill="none" stroke="#343434" stroke-linecap="round" stroke-linejoin="round" stroke-miterlimit="10" stroke-width="1.5"/>
    <path id="Shape-3" data-name="Shape" d="M0,0H2.05" transform="translate(1225.502 120.835)" fill="none" stroke="#343434" stroke-linecap="round" stroke-linejoin="round" stroke-miterlimit="10" stroke-width="1.5"/>
    <path id="Shape-4" data-name="Shape" d="M0,0H2.05" transform="translate(1209.812 120.835)" fill="none" stroke="#343434" stroke-linecap="round" stroke-linejoin="round" stroke-miterlimit="10" stroke-width="1.5"/>
    <path id="Shape-5" data-name="Shape" d="M0,0V2.047" transform="translate(1218.682 127.657)" fill="none" stroke="#343434" stroke-linecap="round" stroke-linejoin="round" stroke-miterlimit="10" stroke-width="1.5"/>
    <path id="Shape-6" data-name="Shape" d="M0,0V2.047" transform="translate(1218.682 111.966)" fill="none" stroke="#343434" stroke-linecap="round" stroke-linejoin="round" stroke-miterlimit="10" stroke-width="1.5"/>
    <path id="Shape-7" data-name="Shape" d="M1.44,0,0,1.432" transform="translate(1223.521 114.559)" fill="none" stroke="#343434" stroke-linecap="round" stroke-linejoin="round" stroke-miterlimit="10" stroke-width="1.5"/>
    <path id="Shape-8" data-name="Shape" d="M1.44,1.433,0,0" transform="translate(1223.451 125.61)" fill="none" stroke="#343434" stroke-linecap="round" stroke-linejoin="round" stroke-miterlimit="10" stroke-width="1.5"/>
    <path id="Shape-9" data-name="Shape" d="M1.43,1.433,0,0" transform="translate(1212.542 114.695)" fill="none" stroke="#343434" stroke-linecap="round" stroke-linejoin="round" stroke-miterlimit="10" stroke-width="1.5"/>
    <path id="Shape-10" data-name="Shape" d="M1.44,0,0,1.432" transform="translate(1212.401 125.679)" fill="none" stroke="#343434" stroke-linecap="round" stroke-linejoin="round" stroke-miterlimit="10" stroke-width="1.5"/>
  </g>
</svg>
